<svg width="329" height="40" viewBox="0 0 329 40" fill="none" xmlns="http://www.w3.org/2000/svg">
<g clip-path="url(#clip0_504_6419)">
<path d="M36.6553 3.54594C34.4035 1.17747 30.4805 -0.00675964 24.8863 -0.00675964H4.77612V8.92574H23.2602C25.6681 8.92574 27.2568 9.37292 28.0264 10.2673C28.7959 11.1617 29.1823 13.3204 29.1857 16.7434V23.3243C29.1857 26.7451 28.8043 28.8936 28.0414 29.7699C27.2786 30.6463 25.6848 31.0856 23.2602 31.0878H4.77612V40.0051H24.8863C30.4805 40.0051 34.4035 38.8209 36.6553 36.4524C38.907 34.0839 40.0312 29.9464 40.0279 24.0399V15.9584C40.0279 10.0462 38.9037 5.90877 36.6553 3.54594Z" fill="#3886FF"/>
<path d="M13.785 13.2347V26.7687C13.7854 27.3305 14.0062 27.8692 14.3988 28.2666C14.7915 28.6639 15.3239 28.8876 15.8795 28.8885V29.7767L14.7753 29.5618L2.12639 27.0851L1.12264 26.8872C0.829569 26.7458 0.574791 26.5346 0.380153 26.2718C0.185515 26.0089 0.0568272 25.7023 0.00512695 25.3781V15.5659C0.0528449 15.2592 0.169502 14.9676 0.346126 14.7136C0.522749 14.4596 0.754632 14.25 1.02393 14.1008L1.05906 14.0805L1.94571 13.8521L14.4558 10.5972L15.8845 10.2267V11.1149C15.609 11.1147 15.3361 11.1693 15.0815 11.2757C14.8269 11.3821 14.5955 11.5382 14.4006 11.735C14.2056 11.9319 14.0509 12.1656 13.9453 12.4229C13.8397 12.6802 13.7852 12.9561 13.785 13.2347Z" fill="#3886FF"/>
<path d="M15.8794 10.2267C15.0908 10.2271 14.3347 10.5443 13.7772 11.1083C13.2197 11.6724 12.9066 12.4372 12.9066 13.2347V26.7687C12.8972 27.1696 12.9672 27.5684 13.1124 27.9416C13.2576 28.3147 13.4751 28.6547 13.7522 28.9416C14.0292 29.2285 14.3602 29.4565 14.7257 29.6122C15.0911 29.7678 15.4837 29.848 15.8802 29.848C16.2768 29.848 16.6693 29.7678 17.0348 29.6122C17.4002 29.4565 17.7312 29.2285 18.0083 28.9416C18.2853 28.6547 18.5028 28.3147 18.6481 27.9416C18.7933 27.5684 18.8632 27.1696 18.8538 26.7687V13.2347C18.8525 12.4373 18.5387 11.673 17.9812 11.1092C17.4236 10.5454 16.6678 10.228 15.8794 10.2267ZM17.9755 26.7654C17.9835 27.0487 17.9351 27.3307 17.8334 27.5948C17.7316 27.8588 17.5786 28.0996 17.3832 28.3028C17.1879 28.506 16.9542 28.6676 16.696 28.7779C16.4379 28.8882 16.1605 28.945 15.8802 28.945C15.6 28.945 15.3225 28.8882 15.0644 28.7779C14.8062 28.6676 14.5726 28.506 14.3772 28.3028C14.1819 28.0996 14.0288 27.8588 13.927 27.5948C13.8253 27.3307 13.777 27.0487 13.7849 26.7654V13.2313C13.777 12.948 13.8253 12.6659 13.927 12.4019C14.0288 12.1378 14.1819 11.897 14.3772 11.6938C14.5726 11.4906 14.8062 11.3291 15.0644 11.2188C15.3225 11.1084 15.6 11.0516 15.8802 11.0516C16.1605 11.0516 16.4379 11.1084 16.696 11.2188C16.9542 11.3291 17.1879 11.4906 17.3832 11.6938C17.5786 11.897 17.7316 12.1378 17.8334 12.4019C17.9351 12.6659 17.9835 12.948 17.9755 13.2313V26.7654Z" fill="#3886FF"/>
<path d="M16.2121 17.0107H15.5463C15.3819 17.0107 15.2485 17.1455 15.2485 17.3118V27.5639C15.2485 27.7302 15.3819 27.865 15.5463 27.865H16.2121C16.3766 27.865 16.5099 27.7302 16.5099 27.5639V17.3118C16.5099 17.1455 16.3766 17.0107 16.2121 17.0107Z" fill="#3886FF"/>
<path d="M16.2121 13.2905H15.5463C15.3819 13.2905 15.2485 13.4253 15.2485 13.5916V14.2649C15.2485 14.4312 15.3819 14.5661 15.5463 14.5661H16.2121C16.3766 14.5661 16.5099 14.4312 16.5099 14.2649V13.5916C16.5099 13.4253 16.3766 13.2905 16.2121 13.2905Z" fill="#3886FF"/>
<path d="M36.9404 12.0656L36.8193 11.9421L36.9404 12.0656Z" fill="#3886FF"/>
<path d="M62.097 32.7254C61.9309 35.2123 61.1819 37.0005 59.8503 38.09C58.5187 39.1795 56.4242 39.7248 53.5668 39.7259H50.6626C47.4885 39.7259 45.258 39.0588 43.9709 37.7246C42.6839 36.3904 42.0421 34.0569 42.0454 30.7241V26.2037C42.0454 22.8845 42.6873 20.5543 43.9709 19.2133C45.2546 17.8723 47.4852 17.2024 50.6626 17.2035H53.5668C56.7398 17.2035 58.9703 17.8735 60.2585 19.2133C61.5466 20.5532 62.189 22.8833 62.1857 26.2037V29.6617H48.973V32.3499C48.973 33.3367 49.1754 34.0315 49.5802 34.4341C49.9851 34.8368 50.6961 35.0381 51.7132 35.0381H52.5982C53.5462 35.0381 54.2126 34.8689 54.5973 34.5305C54.9821 34.1922 55.2158 33.5882 55.2983 32.7187L62.097 32.7254ZM48.973 25.9956H55.4221V25.2242C55.4221 23.7659 55.233 22.7971 54.855 22.3177C54.4769 21.8384 53.7386 21.5987 52.64 21.5987H51.7534C50.6827 21.5987 49.9516 21.8316 49.5602 22.2974C49.1687 22.7632 48.973 23.6694 48.973 25.0161V25.9956Z" fill="#0B0B0B"/>
<path d="M86.0567 32.7254C85.8927 35.2123 85.1471 37.0005 83.82 38.09C82.4928 39.1795 80.3983 39.7248 77.5365 39.7259H74.6189C71.4471 39.7259 69.2165 39.0588 67.9272 37.7246C66.638 36.3904 65.9956 34.0569 66 30.7241V26.2037C66 22.8845 66.6424 20.5543 67.9272 19.2133C69.212 17.8723 71.4426 17.2024 74.6189 17.2035H77.5248C80.6966 17.2035 82.9272 17.8735 84.2164 19.2133C85.5057 20.5532 86.1475 22.8833 86.142 26.2037V29.6617H72.9326V32.3499C72.9326 33.3367 73.1356 34.0315 73.5415 34.4341C73.9475 34.8368 74.6579 35.0381 75.6728 35.0381H76.5595C77.5064 35.0381 78.1722 34.8689 78.557 34.5305C78.9417 34.1922 79.1754 33.5882 79.2579 32.7187L86.0567 32.7254ZM72.9326 25.9956H79.3817V25.2242C79.3817 23.7659 79.1927 22.7971 78.8146 22.3177C78.4365 21.8384 77.6982 21.5987 76.5996 21.5987H75.7147C74.644 21.5987 73.9124 21.8316 73.5198 22.2974C73.1272 22.7632 72.9315 23.6694 72.9326 25.0161V25.9956Z" fill="#0B0B0B"/>
<path d="M88.1997 17.4945H95.6375L99.4685 34.0162L103.483 17.4945H110.9L104.542 39.4333H94.2774L88.1997 17.4945Z" fill="#0B0B0B"/>
<path d="M114.302 39.4333V17.4945H120.977L120.895 20.6209C121.444 19.4118 122.131 18.54 122.956 18.0054C123.782 17.4708 124.853 17.2035 126.17 17.2035C128.354 17.2035 129.871 17.7674 130.722 18.8953C131.573 20.0231 131.999 22.1192 132 25.1836V27.1409H125.531V25.7452C125.531 24.6896 125.376 23.9536 125.067 23.5375C124.759 23.1213 124.201 22.9127 123.395 22.9115C122.544 22.9115 121.964 23.1546 121.655 23.6407C121.346 24.1268 121.191 25.2935 121.19 27.1409V39.4333H114.302Z" fill="#0B0B0B"/>
</g>
<defs>
<clipPath id="clip0_504_6419">
<rect width="132" height="40" fill="white"/>
</clipPath>
</defs>
</svg>
